#Comment line ignore any data following # character 
#Hierarchical Translation and Rotation (.htr) file 
[Header]	
#Header keywords are followed by a single value 
FileType HTR		#Single word string
DataType HTRS		#Translation followed by rotation and scale data
FileVersion 1		#integer
NumSegments 84		#integer
NumFrames 2		#integer
DataFrameRate 30		#integer, data frame rate in this file
EulerRotationOrder ZYX
CalibrationUnits mm
RotationUnits Degrees
GlobalAxisofGravity Y
BoneLengthAxis Y
ScaleFactor 1.00
[SegmentNames&Hierarchy]
#CHILD	PARENT
MASTER GLOBAL
root MASTER
chest root
L_mid_tent01 root
R_mid_tent01 root
spine01 root
Bip01_Neck chest
L_humerus chest
R_humerus chest
weapon_bone chest
Bip01_Head Bip01_Neck
eye_left_bone Bip01_Head
eye_right_bone Bip01_Head
L_forearm L_humerus
L_front_hand L_forearm
L_weapon_bone L_forearm
L_front_hand01_01 L_front_hand
L_front_hand02_01 L_front_hand
L_front_hand03_01 L_front_hand
L_front_hand01_02 L_front_hand01_01
L_front_hand02_02 L_front_hand02_01
L_front_hand03_02 L_front_hand03_01
R_forearm R_humerus
R_front_hand R_forearm
R_weapon_bone R_forearm
R_front_hand01_01 R_front_hand
R_front_hand02_01 R_front_hand
R_front_hand03_01 R_front_hand
R_front_hand01_02 R_front_hand01_01
R_front_hand02_02 R_front_hand02_01
R_front_hand03_02 R_front_hand03_01
null_rope01_connect L_mid_tent01
Rope1_Seg01 null_rope01_connect
Rope1_Seg02 Rope1_Seg01
Rope1_Seg03 Rope1_Seg02
Rope1_Seg04 Rope1_Seg03
Rope1_Seg05 Rope1_Seg04
Rope1_Seg06 Rope1_Seg05
Rope1_Seg07 Rope1_Seg06
Rope1_Seg09 Rope1_Seg07
L_mid_hand01 Rope1_Seg09
L_mid_hand02 Rope1_Seg09
L_mid_hand03 Rope1_Seg09
null_rope02_connect R_mid_tent01
Rope2_Seg01 null_rope02_connect
Rope2_Seg02 Rope2_Seg01
Rope2_Seg03 Rope2_Seg02
Rope2_Seg04 Rope2_Seg03
Rope2_Seg05 Rope2_Seg04
Rope2_Seg06 Rope2_Seg05
Rope2_Seg07 Rope2_Seg06
Rope2_Seg09 Rope2_Seg07
R_mid_hand01 Rope2_Seg09
R_mid_hand02 Rope2_Seg09
R_mid_hand03 Rope2_Seg09
spine02 spine01
spine03 spine02
pelvis spine03
null_rope03_connect pelvis
null_rope04_connect pelvis
Rope3_Seg01 null_rope03_connect
Rope3_Seg02 Rope3_Seg01
Rope3_Seg03 Rope3_Seg02
Rope3_Seg04 Rope3_Seg03
Rope3_Seg05 Rope3_Seg04
Rope3_Seg06 Rope3_Seg05
Rope3_Seg07 Rope3_Seg06
Rope3_Seg08 Rope3_Seg07
Rope3_Seg09 Rope3_Seg08
R_rear_hand01 Rope3_Seg09
R_rear_hand02 Rope3_Seg09
R_rear_hand03 Rope3_Seg09
Rope4_Seg01 null_rope04_connect
Rope4_Seg02 Rope4_Seg01
Rope4_Seg03 Rope4_Seg02
Rope4_Seg04 Rope4_Seg03
Rope4_Seg05 Rope4_Seg04
Rope4_Seg06 Rope4_Seg05
Rope4_Seg07 Rope4_Seg06
Rope4_Seg08 Rope4_Seg07
Rope4_Seg09 Rope4_Seg08
L_rear_hand01 Rope4_Seg09
L_rear_hand02 Rope4_Seg09
L_rear_hand03 Rope4_Seg09
[BasePosition]
#SegmentName Tx, Ty, Tz, Rx, Ry, Rz, BoneLength
MASTER 0.000000 0.000000 0.000000 -90.000000 0.000000 0.000000 10.000000 
root 0.000000 0.000000 0.000000 0.000000 0.000000 0.000000 10.000000 
chest 0.000000 0.000000 0.000000 0.000000 0.000000 0.000000 10.000000 
L_mid_tent01 0.000000 0.000000 0.000000 0.000000 0.000000 0.000000 10.000000 
R_mid_tent01 0.000000 0.000000 0.000000 0.000000 0.000000 0.000000 10.000000 
spine01 0.000000 0.000000 0.000000 0.000000 0.000000 0.000000 10.000000 
Bip01_Neck 0.000000 0.000000 0.000000 0.000000 0.000000 0.000000 10.000000 
L_humerus 0.000000 0.000000 0.000000 0.000000 0.000000 0.000000 10.000000 
R_humerus 0.000000 0.000000 0.000000 0.000000 0.000000 0.000000 10.000000 
weapon_bone 0.000000 0.000000 0.000000 0.000000 0.000000 0.000000 10.000000 
Bip01_Head 0.000000 0.000000 0.000000 0.000000 0.000000 0.000000 10.000000 
eye_left_bone 0.000000 0.000000 0.000000 0.000000 0.000000 0.000000 10.000000 
eye_right_bone 0.000000 0.000000 0.000000 0.000000 0.000000 0.000000 10.000000 
L_forearm 0.000000 0.000000 0.000000 0.000000 0.000000 0.000000 10.000000 
L_front_hand 0.000000 0.000000 0.000000 0.000000 0.000000 0.000000 10.000000 
L_weapon_bone 0.000000 0.000000 0.000000 0.000000 0.000000 0.000000 10.000000 
L_front_hand01_01 0.000000 0.000000 0.000000 0.000000 0.000000 0.000000 10.000000 
L_front_hand02_01 0.000000 0.000000 0.000000 0.000000 0.000000 0.000000 10.000000 
L_front_hand03_01 0.000000 0.000000 0.000000 0.000000 0.000000 0.000000 10.000000 
L_front_hand01_02 0.000000 0.000000 0.000000 0.000000 0.000000 0.000000 10.000000 
L_front_hand02_02 0.000000 0.000000 0.000000 0.000000 0.000000 0.000000 10.000000 
L_front_hand03_02 0.000000 0.000000 0.000000 0.000000 0.000000 0.000000 10.000000 
R_forearm 0.000000 0.000000 0.000000 0.000000 0.000000 0.000000 10.000000 
R_front_hand 0.000000 0.000000 0.000000 0.000000 0.000000 0.000000 10.000000 
R_weapon_bone 0.000000 0.000000 0.000000 0.000000 0.000000 0.000000 10.000000 
R_front_hand01_01 0.000000 0.000000 0.000000 0.000000 0.000000 0.000000 10.000000 
R_front_hand02_01 0.000000 0.000000 0.000000 0.000000 0.000000 0.000000 10.000000 
R_front_hand03_01 0.000000 0.000000 0.000000 0.000000 0.000000 0.000000 10.000000 
R_front_hand01_02 0.000000 0.000000 0.000000 0.000000 0.000000 0.000000 10.000000 
R_front_hand02_02 0.000000 0.000000 0.000000 0.000000 0.000000 0.000000 10.000000 
R_front_hand03_02 0.000000 0.000000 0.000000 0.000000 0.000000 0.000000 10.000000 
null_rope01_connect 0.000000 0.000000 0.000000 0.000000 0.000000 0.000000 10.000000 
Rope1_Seg01 0.000000 0.000000 0.000000 0.000000 0.000000 0.000000 10.000000 
Rope1_Seg02 0.000000 0.000000 0.000000 0.000000 0.000000 0.000000 10.000000 
Rope1_Seg03 0.000000 0.000000 0.000000 0.000000 0.000000 0.000000 10.000000 
Rope1_Seg04 0.000000 0.000000 0.000000 0.000000 0.000000 0.000000 10.000000 
Rope1_Seg05 0.000000 0.000000 0.000000 0.000000 0.000000 0.000000 10.000000 
Rope1_Seg06 0.000000 0.000000 0.000000 0.000000 0.000000 0.000000 10.000000 
Rope1_Seg07 0.000000 0.000000 0.000000 0.000000 0.000000 0.000000 10.000000 
Rope1_Seg09 0.000000 0.000000 0.000000 0.000000 0.000000 0.000000 10.000000 
L_mid_hand01 0.000000 0.000000 0.000000 0.000000 0.000000 0.000000 10.000000 
L_mid_hand02 0.000000 0.000000 0.000000 0.000000 0.000000 0.000000 10.000000 
L_mid_hand03 0.000000 0.000000 0.000000 0.000000 0.000000 0.000000 10.000000 
null_rope02_connect 0.000000 0.000000 0.000000 0.000000 0.000000 0.000000 10.000000 
Rope2_Seg01 0.000000 0.000000 0.000000 0.000000 0.000000 0.000000 10.000000 
Rope2_Seg02 0.000000 0.000000 0.000000 0.000000 0.000000 0.000000 10.000000 
Rope2_Seg03 0.000000 0.000000 0.000000 0.000000 0.000000 0.000000 10.000000 
Rope2_Seg04 0.000000 0.000000 0.000000 0.000000 0.000000 0.000000 10.000000 
Rope2_Seg05 0.000000 0.000000 0.000000 0.000000 0.000000 0.000000 10.000000 
Rope2_Seg06 0.000000 0.000000 0.000000 0.000000 0.000000 0.000000 10.000000 
Rope2_Seg07 0.000000 0.000000 0.000000 0.000000 0.000000 0.000000 10.000000 
Rope2_Seg09 0.000000 0.000000 0.000000 0.000000 0.000000 0.000000 10.000000 
R_mid_hand01 0.000000 0.000000 0.000000 0.000000 0.000000 0.000000 10.000000 
R_mid_hand02 0.000000 0.000000 0.000000 0.000000 0.000000 0.000000 10.000000 
R_mid_hand03 0.000000 0.000000 0.000000 0.000000 0.000000 0.000000 10.000000 
spine02 0.000000 0.000000 0.000000 0.000000 0.000000 0.000000 10.000000 
spine03 0.000000 0.000000 0.000000 0.000000 0.000000 0.000000 10.000000 
pelvis 0.000000 0.000000 0.000000 0.000000 0.000000 0.000000 10.000000 
null_rope03_connect 0.000000 0.000000 0.000000 0.000000 0.000000 0.000000 10.000000 
null_rope04_connect 0.000000 0.000000 0.000000 0.000000 0.000000 0.000000 10.000000 
Rope3_Seg01 0.000000 0.000000 0.000000 0.000000 0.000000 0.000000 10.000000 
Rope3_Seg02 0.000000 0.000000 0.000000 0.000000 0.000000 0.000000 10.000000 
Rope3_Seg03 0.000000 0.000000 0.000000 0.000000 0.000000 0.000000 10.000000 
Rope3_Seg04 0.000000 0.000000 0.000000 0.000000 0.000000 0.000000 10.000000 
Rope3_Seg05 0.000000 0.000000 0.000000 0.000000 0.000000 0.000000 10.000000 
Rope3_Seg06 0.000000 0.000000 0.000000 0.000000 0.000000 0.000000 10.000000 
Rope3_Seg07 0.000000 0.000000 0.000000 0.000000 0.000000 0.000000 10.000000 
Rope3_Seg08 0.000000 0.000000 0.000000 0.000000 0.000000 0.000000 10.000000 
Rope3_Seg09 0.000000 0.000000 0.000000 0.000000 0.000000 0.000000 10.000000 
R_rear_hand01 0.000000 0.000000 0.000000 0.000000 0.000000 0.000000 10.000000 
R_rear_hand02 0.000000 0.000000 0.000000 0.000000 0.000000 0.000000 10.000000 
R_rear_hand03 0.000000 0.000000 0.000000 0.000000 0.000000 0.000000 10.000000 
Rope4_Seg01 0.000000 0.000000 0.000000 0.000000 0.000000 0.000000 10.000000 
Rope4_Seg02 0.000000 0.000000 0.000000 0.000000 0.000000 0.000000 10.000000 
Rope4_Seg03 0.000000 0.000000 0.000000 0.000000 0.000000 0.000000 10.000000 
Rope4_Seg04 0.000000 0.000000 0.000000 0.000000 0.000000 0.000000 10.000000 
Rope4_Seg05 0.000000 0.000000 0.000000 0.000000 0.000000 0.000000 10.000000 
Rope4_Seg06 0.000000 0.000000 0.000000 0.000000 0.000000 0.000000 10.000000 
Rope4_Seg07 0.000000 0.000000 0.000000 0.000000 0.000000 0.000000 10.000000 
Rope4_Seg08 0.000000 0.000000 0.000000 0.000000 0.000000 0.000000 10.000000 
Rope4_Seg09 0.000000 0.000000 0.000000 0.000000 0.000000 0.000000 10.000000 
L_rear_hand01 0.000000 0.000000 0.000000 0.000000 0.000000 0.000000 10.000000 
L_rear_hand02 0.000000 0.000000 0.000000 0.000000 0.000000 0.000000 10.000000 
L_rear_hand03 0.000000 0.000000 0.000000 0.000000 0.000000 0.000000 10.000000 
#Beginning of Data. Separated by tabs
#Fr	Tx	Ty	Tz	Rx	Ry	Rz	SF
[MASTER]
7 0.000000 0.000000 0.000000 0.001660 0.001660 0.001660 0.000000
8 0.000000 0.000000 0.000000 0.001660 0.001660 0.001660 0.000000
[root]
7 -16.502291 -62.822117 1502.657593 -91.629700 -27.676081 -90.148109 1504.060791
8 -16.502291 -62.822117 1502.657593 -91.629707 -27.676079 -90.148117 1504.060791
[chest]
7 -84.512650 -34.090519 0.000000 -2.246063 0.457500 179.450211 91.129311
8 -84.512650 -34.090519 0.000000 -2.081231 0.425643 -178.807343 91.129311
[L_mid_tent01]
7 27.299500 22.177483 -249.917984 -17.740118 29.508635 46.325150 252.380859
8 27.299500 22.177483 -249.917984 -15.307617 31.706640 50.651424 252.380859
[R_mid_tent01]
7 23.228794 24.509907 226.238495 176.347794 -32.545761 56.566788 228.744751
8 23.228794 24.509907 226.238495 174.655243 -35.455399 60.365314 228.744751
[spine01]
7 -0.361383 -0.195265 0.000000 0.001879 0.001408 16.315987 0.410763
8 -0.361383 -0.195265 0.000000 0.001880 0.001406 16.446312 0.410763
[Bip01_Neck]
7 165.484543 71.581718 0.000119 175.896118 1.177290 24.871180 180.302734
8 165.484543 71.581718 0.000119 175.896118 1.177290 24.871183 180.302734
[L_humerus]
7 -13.983130 -135.272980 -120.471481 171.580536 33.990498 -112.682823 181.680161
8 -13.983130 -135.272980 -120.471481 174.941238 25.217730 -114.513603 181.680161
[R_humerus]
7 -13.983309 -135.273102 125.287651 -172.653793 -27.249979 -111.291306 184.909012
8 -13.983309 -135.273102 125.287651 -174.023422 -20.731544 -113.767227 184.909012
[weapon_bone]
7 235.964890 -300.705902 0.000000 0.000000 -89.951546 -128.212341 382.234833
8 235.964890 -300.705902 0.000000 0.000000 -89.951546 -128.212341 382.234833
[Bip01_Head]
7 156.270584 232.631256 20.078197 1.017470 3.887437 -26.035311 280.964294
8 146.114441 207.904694 18.341951 1.266983 3.832587 -24.622494 254.774841
[eye_left_bone]
7 -24.626970 125.451866 -64.772606 0.000000 -90.000000 -99.840431 143.318359
8 -24.626970 125.451866 -64.772606 0.000000 -90.000000 -99.840431 143.318359
[eye_right_bone]
7 -24.626970 125.451866 64.327362 0.000000 -89.960434 80.159386 143.117676
8 -24.626970 125.451866 64.327362 0.000000 -89.960434 80.159386 143.117676
[L_forearm]
7 322.776093 0.000000 -0.000119 0.000331 0.002324 -73.774811 322.776093
8 322.776093 0.000000 -0.000119 0.000328 0.002324 -73.932671 322.776093
[L_front_hand]
7 241.149185 -0.042021 -3.300071 -179.393341 -2.184763 -6.944373 241.171753
8 241.149185 -0.042021 -3.300071 -179.522430 -2.218652 -3.535090 241.171753
[L_weapon_bone]
7 156.183838 0.000000 0.000000 0.001698 0.001621 2.667634 156.183838
8 156.183838 0.000000 0.000000 0.001710 0.001607 3.558186 156.183838
[L_front_hand01_01]
7 86.095154 20.947098 -0.655860 -0.291158 -0.522968 67.061264 88.609184
8 86.095154 20.947098 -0.655860 -0.100148 -0.591328 47.223953 88.609184
[L_front_hand02_01]
7 86.935165 -11.437475 24.513514 143.101089 -55.544384 -48.031063 91.046425
8 86.935165 -11.437475 24.513514 127.052094 -41.325016 -26.843222 91.046425
[L_front_hand03_01]
7 86.637497 -14.123976 -20.424902 -143.374512 53.765842 -50.004814 90.126129
8 86.637497 -14.123976 -20.424902 -128.080597 39.719501 -29.266323 90.126129
[L_front_hand01_02]
7 71.020905 -0.000179 0.000030 0.001534 0.001777 -8.378851 71.020905
8 71.020905 -0.000179 0.000030 0.001534 0.001777 -8.378850 71.020905
[L_front_hand02_02]
7 71.020927 -0.000119 0.000060 0.001534 0.001777 -8.378851 71.020927
8 71.020927 -0.000119 0.000060 0.001534 0.001777 -8.378850 71.020927
[L_front_hand03_02]
7 71.020905 -0.000060 0.000060 0.001534 0.001777 -8.378851 71.020905
8 71.020905 -0.000060 0.000060 0.001534 0.001777 -8.378850 71.020905
[R_forearm]
7 322.776428 -0.000060 0.000030 0.180084 -0.111290 -59.838535 322.776428
8 322.776428 -0.000060 0.000030 0.184016 -0.107871 -60.953106 322.776428
[R_front_hand]
7 238.847015 -0.006795 2.210259 -1.073209 1.351444 -27.139324 238.857239
8 238.847015 -0.006795 2.210259 -0.975131 1.424063 -23.077642 238.857239
[R_weapon_bone]
7 155.664093 0.002503 -0.000030 0.003471 0.001225 -92.477371 155.664078
8 155.664093 0.002503 -0.000030 0.003466 0.001240 -92.989845 155.664078
[R_front_hand01_01]
7 87.624611 14.231146 22.918642 -143.276230 -55.629768 48.350796 91.683487
8 87.624611 14.231146 22.918642 -127.131477 -41.440014 27.074306 91.683487
[R_front_hand02_01]
7 89.356956 14.367283 -19.491137 143.899582 54.027161 50.886475 92.579636
8 89.356956 14.367283 -19.491137 128.331161 40.073605 29.885426 92.579636
[R_front_hand03_01]
7 87.286232 -22.307278 -0.143439 0.096743 -0.444812 -67.447899 90.091743
8 87.286232 -22.307278 -0.143439 -0.058654 -0.451096 -47.608204 90.091743
[R_front_hand01_02]
7 71.020905 0.000060 0.000119 0.001777 0.001534 8.377220 71.020905
8 71.020905 0.000060 0.000119 0.001777 0.001534 8.377220 71.020905
[R_front_hand02_02]
7 71.020844 -0.000030 -0.000119 0.001777 0.001534 8.377220 71.020836
8 71.020844 -0.000030 -0.000119 0.001777 0.001534 8.377220 71.020836
[R_front_hand03_02]
7 71.020905 0.000000 0.000030 0.001777 0.001534 8.377220 71.020905
8 71.020905 0.000000 0.000030 0.001777 0.001534 8.377220 71.020905
[null_rope01_connect]
7 328.732483 0.000000 -0.000238 -141.908768 -54.293442 -151.387344 328.732483
8 328.732483 0.000000 -0.000238 -140.780975 -53.451641 -156.500000 328.732483
[Rope1_Seg01]
7 0.000000 0.000000 0.000000 -165.477097 46.003731 -134.767258 0.000000
8 0.000000 0.000000 0.000000 141.221970 51.741077 174.683411 0.000000
[Rope1_Seg02]
7 139.999863 -0.000179 0.000000 7.144471 -20.938921 11.439343 139.999863
8 139.999863 -0.000179 0.000000 7.320657 -25.559938 1.723527 139.999863
[Rope1_Seg03]
7 139.999924 0.000060 -0.000060 -0.796028 -35.716160 20.741117 139.999924
8 139.999924 0.000060 -0.000060 -0.052091 -30.124317 4.083048 139.999924
[Rope1_Seg04]
7 139.999924 -0.000060 -0.000119 3.602306 14.229542 25.865995 139.999924
8 139.999924 -0.000060 -0.000119 6.769151 9.325197 21.250429 139.999924
[Rope1_Seg05]
7 139.999832 0.000119 -0.000060 0.852165 4.276643 5.127962 139.999832
8 139.999832 0.000119 -0.000060 2.296245 3.623250 5.654283 139.999832
[Rope1_Seg06]
7 139.999954 0.000119 -0.000060 0.308505 1.252012 2.275393 139.999954
8 139.999954 0.000119 -0.000060 0.928371 1.208325 2.494614 139.999954
[Rope1_Seg07]
7 139.999985 0.000060 0.000000 0.198549 0.756064 1.353205 139.999985
8 139.999985 0.000060 0.000000 0.595441 0.765396 1.514178 139.999985
[Rope1_Seg09]
7 121.602913 0.000119 -0.000089 -89.793175 -1.359789 0.847147 121.602913
8 121.602913 0.000119 -0.000089 -89.793175 -1.359789 0.847147 121.602913
[L_mid_hand01]
7 103.859421 1.038730 8.195221 107.393967 -33.957161 -10.457446 104.187431
8 103.859421 1.038730 8.195221 107.289543 -33.481377 -10.276379 104.187431
[L_mid_hand02]
7 105.572853 -4.139662 -10.864139 -143.468018 27.471689 -31.314642 106.211075
8 105.572853 -4.139662 -10.864139 -143.262390 27.169680 -30.857672 106.211075
[L_mid_hand03]
7 104.641464 17.579376 -3.913581 -15.631480 10.511371 37.003174 106.179977
8 104.641464 17.579376 -3.913581 -15.723504 10.377079 36.514790 106.179977
[null_rope02_connect]
7 328.732849 0.000179 -0.000119 -110.507614 58.640930 7.611411 328.732849
8 328.732849 0.000179 -0.000119 -112.137810 55.591793 9.148596 328.732849
[Rope2_Seg01]
7 0.000095 0.000153 0.000009 -140.005875 41.314827 -36.090008 0.000180
8 0.000095 0.000153 0.000011 -81.829735 46.269993 8.062459 0.000180
[Rope2_Seg02]
7 139.999741 -0.000060 -0.000119 19.340221 -25.972363 -6.114339 139.999756
8 139.999741 -0.000060 -0.000119 -1.410202 -14.363062 7.507570 139.999756
[Rope2_Seg03]
7 140.000107 0.000030 0.000000 5.472781 -17.372589 -1.215683 140.000107
8 140.000107 0.000030 0.000000 -0.203637 -7.493607 3.360997 140.000107
[Rope2_Seg04]
7 139.999802 0.000000 -0.000060 -1.457177 -11.531475 7.481415 139.999802
8 139.999802 0.000000 -0.000060 -1.189831 -13.691773 8.081364 139.999802
[Rope2_Seg05]
7 139.999985 -0.000060 0.000119 -1.325835 -7.749793 8.864615 139.999985
8 139.999985 -0.000060 0.000119 -0.462386 -10.369081 6.259173 139.999985
[Rope2_Seg06]
7 139.999893 -0.000030 -0.000119 -0.202167 -4.540384 3.890879 139.999893
8 139.999893 -0.000030 -0.000119 -0.013976 -4.832851 2.833984 139.999893
[Rope2_Seg07]
7 139.999893 0.000060 -0.000060 -0.025256 -2.911779 2.421699 139.999893
8 139.999893 0.000060 -0.000060 0.033176 -3.046139 1.791815 139.999893
[Rope2_Seg09]
7 121.338966 0.000089 -0.000060 33.793236 -1.359788 -0.847141 121.338966
8 121.338966 0.000089 -0.000060 33.793236 -1.359788 -0.847141 121.338966
[R_mid_hand01]
7 104.680779 11.144459 -10.335981 -40.768616 26.770271 30.311377 105.778534
8 104.680779 11.144459 -10.335981 -40.950741 26.460745 29.912159 105.778534
[R_mid_hand02]
7 104.070427 2.443552 8.231699 72.438393 -34.697609 10.747061 104.424065
8 104.070427 2.443552 8.231699 72.537971 -34.245598 10.573274 104.424065
[R_mid_hand03]
7 106.028137 -11.221827 -5.996406 -168.271103 10.683364 -39.045155 106.788818
8 106.028137 -11.221827 -5.996406 -168.183151 10.582751 -38.574482 106.788818
[spine02]
7 129.756927 0.001550 0.000119 -0.506035 -4.039869 -0.712935 129.756927
8 129.756927 0.001550 0.000119 -0.547759 -4.035558 -0.137399 129.756927
[spine03]
7 78.673958 0.076807 -4.310939 0.116787 4.358996 -8.043077 78.792015
8 78.684006 0.075061 -4.212964 0.059704 4.369778 -8.740196 78.796745
[pelvis]
7 169.435242 0.051022 0.000000 -0.837292 -0.614088 -0.017021 169.435257
8 169.435242 0.051022 0.000000 -0.976697 -0.681972 0.297422 169.435257
[null_rope03_connect]
7 -1.257226 -2.466202 137.391083 -159.138229 -87.676956 -90.738808 137.418976
8 -1.257226 -2.466202 137.391083 -160.733429 -87.493759 -89.466644 137.418976
[null_rope04_connect]
7 -1.259640 -2.480268 -137.844437 -159.138229 -87.676956 -90.738808 137.872513
8 -1.259640 -2.480268 -137.844437 -160.733429 -87.493759 -89.466644 137.872513
[Rope3_Seg01]
7 0.000000 0.000000 0.000000 -150.520340 -48.509007 -57.953342 0.000000
8 0.000000 0.000000 0.000000 -150.485489 -51.991989 -59.991219 0.000000
[Rope3_Seg02]
7 139.999924 -0.000119 0.000060 -3.305917 5.804181 -3.664134 139.999924
8 139.999924 -0.000119 0.000060 -4.251391 5.353957 -7.222139 139.999924
[Rope3_Seg03]
7 139.999924 -0.000119 0.000119 -2.076179 4.500275 -1.604719 139.999924
8 139.999924 -0.000119 0.000119 -6.684382 7.709399 -9.131969 139.999924
[Rope3_Seg04]
7 139.999924 0.000119 0.000000 -0.287414 1.810711 1.431515 139.999924
8 139.999924 0.000119 0.000000 -8.155075 9.232854 -9.087056 139.999924
[Rope3_Seg05]
7 139.999924 -0.000238 0.000060 -10.110713 15.202695 -13.892730 139.999924
8 139.999924 -0.000238 0.000060 -15.533512 18.939297 -13.737175 139.999924
[Rope3_Seg06]
7 139.999893 -0.000119 -0.000060 -10.531240 17.321592 -12.958249 139.999893
8 139.999893 -0.000119 -0.000060 -9.591459 17.836283 -7.059838 139.999893
[Rope3_Seg07]
7 139.999771 0.000060 -0.000119 -3.080149 7.816307 -3.794739 139.999771
8 139.999771 0.000060 -0.000119 -3.139355 9.548202 -2.182039 139.999771
[Rope3_Seg08]
7 139.999985 -0.000060 0.000000 -1.179365 4.272765 -1.804381 139.999985
8 139.999985 -0.000060 0.000000 -1.049044 5.193552 -0.897491 139.999985
[Rope3_Seg09]
7 90.185997 -0.000179 -0.000060 89.793228 -1.359877 -0.847183 90.185997
8 90.185997 -0.000179 -0.000060 89.793228 -1.359877 -0.847183 90.185997
[R_rear_hand01]
7 103.366196 -6.073594 -10.757982 -162.186020 17.345362 -32.256355 104.101845
8 103.366196 -6.073594 -10.757982 -162.055817 17.210106 -31.822824 104.101845
[R_rear_hand02]
7 100.509819 12.039542 -7.992327 -33.626179 20.509380 30.801277 101.543350
8 100.509819 12.039542 -7.992327 -33.762150 20.268606 30.413347 101.543350
[R_rear_hand03]
7 101.539970 5.215704 5.435467 83.208748 -33.099560 7.586431 101.819031
8 101.539970 5.215704 5.435467 83.243111 -32.667610 7.523952 101.819031
[Rope4_Seg01]
7 0.000000 0.000000 0.000000 49.846821 -31.441730 -104.196831 0.000000
8 0.000000 0.000000 0.000000 49.169247 -35.276329 -101.696106 0.000000
[Rope4_Seg02]
7 139.999985 0.000060 0.000119 2.496226 -13.574887 8.401053 139.999985
8 139.999985 0.000060 0.000119 2.407120 -15.046899 7.213625 139.999985
[Rope4_Seg03]
7 139.999924 0.000000 -0.000238 4.728822 -13.832539 8.306968 139.999924
8 139.999924 0.000000 -0.000238 7.915378 -22.038208 11.551294 139.999924
[Rope4_Seg04]
7 139.999985 0.000000 0.000119 5.394077 -11.093188 5.663732 139.999985
8 139.999985 0.000000 0.000119 13.953009 -19.950529 12.167603 139.999985
[Rope4_Seg05]
7 139.999802 -0.000060 -0.000119 9.101611 -6.154234 14.940250 139.999802
8 139.999802 -0.000060 -0.000119 11.588155 -4.138168 14.592119 139.999802
[Rope4_Seg06]
7 139.999924 0.000000 0.000060 6.901503 -0.354629 15.681252 139.999924
8 139.999924 0.000000 0.000060 7.525600 5.220439 15.937707 139.999924
[Rope4_Seg07]
7 139.999802 0.000000 0.000000 2.749916 0.094763 7.885981 139.999802
8 139.999802 0.000000 0.000000 3.495982 3.393153 11.022083 139.999802
[Rope4_Seg08]
7 139.999924 0.000000 0.000119 -0.250469 0.139722 4.285347 139.999924
8 139.999924 0.000000 0.000119 -0.166640 2.061655 6.333449 139.999924
[Rope4_Seg09]
7 90.185791 0.000060 0.000060 -135.617828 2.228885 0.850567 90.185791
8 90.185791 0.000060 0.000060 -135.617828 2.228885 0.850567 90.185791
[L_rear_hand01]
7 101.696655 -8.392275 -7.654577 -33.798729 -20.200216 149.693970 102.329041
8 101.696655 -8.392275 -7.654577 -33.942139 -19.932570 150.117935 102.329041
[L_rear_hand02]
7 102.726799 -1.568258 5.773216 83.251213 32.547768 172.491455 102.900848
8 102.726799 -1.568258 5.773216 83.286377 32.069252 172.560822 102.900848
[L_rear_hand03]
7 104.552910 9.721220 -10.420293 -162.023026 -17.175001 -148.298523 105.519653
8 104.552910 9.721220 -10.420293 -161.880508 -17.024223 -148.772690 105.519653
